<svg width="32" height="32" viewBox="0 0 32 32" fill="none" xmlns="http://www.w3.org/2000/svg">
    <defs>
        <linearGradient id="bg-gradient" x1="0%" y1="0%" x2="100%" y2="100%">
            <stop offset="0%" style="stop-color:#3B82F6;stop-opacity:1" />
            <stop offset="100%" style="stop-color:#1D4ED8;stop-opacity:1" />
        </linearGradient><!--
        svg gradient end -->
        <linearGradient id="light-gradient" x1="0%" y1="0%" x2="100%" y2="100%">
            <stop offset="0%" style="stop-color:#FBBF24;stop-opacity:1" />
            <stop offset="100%" style="stop-color:#F59E0B;stop-opacity:1" />
        </linearGradient>
    </defs>
    <circle cx="16" cy="16" r="16" fill="url(#bg-gradient)" />
    <rect x="8" y="6" width="16" height="20" rx="2" fill="white" opacity="0.95" />
    <rect x="10" y="9" width="8" height="1.5" rx="0.75" fill="#64748B" opacity="0.7" />
    <rect x="10" y="12" width="12" height="1.5" rx="0.75" fill="#64748B" opacity="0.7" />
    <rect x="10" y="15" width="10" height="1.5" rx="0.75" fill="#64748B" opacity="0.7" />
    <rect x="10" y="18" width="6" height="1.5" rx="0.75" fill="#64748B" opacity="0.7" />
    <circle cx="20" cy="10" r="3" fill="url(#light-gradient)" opacity="0.9" />
    <circle cx="20" cy="10" r="1.5" fill="#FEF3C7" opacity="0.8" />
    <g stroke="#FEF3C7" stroke-width="0.8" stroke-linecap="round" opacity="0.9">
        <line x1="20" y1="5" x2="20" y2="6.5" />
        <line x1="25" y1="10" x2="23.5" y2="10" />
        <line x1="23.5" y1="6.5" x2="22.6" y2="7.4" />
        <line x1="16.5" y1="6.5" x2="17.4" y2="7.4" />
        <line x1="23.5" y1="13.5" x2="22.6" y2="12.6" />
        <line x1="16.5" y1="13.5" x2="17.4" y2="12.6" />
    </g>
</svg>